<?xml version="1.0" encoding="utf-8"?>
<!-- Generator: Adobe Illustrator 16.0.0, SVG Export Plug-In . SVG Version: 6.00 Build 0)  -->
<!DOCTYPE svg PUBLIC "-//W3C//DTD SVG 1.1//EN" "http://www.w3.org/Graphics/SVG/1.1/DTD/svg11.dtd">
<svg version="1.1" id="Layer_1_copy" xmlns="http://www.w3.org/2000/svg" xmlns:xlink="http://www.w3.org/1999/xlink" x="0px"
	 y="0px" width="70.27px" height="76.409px" viewBox="0 0 70.27 76.409" enable-background="new 0 0 70.27 76.409"
	 xml:space="preserve">
<g>
	<path stroke="#000000" stroke-width="0.7807" stroke-miterlimit="10" d="M22.679,19.779l1.296,4.248
		c-0.648,0.216-1.152,0.432-1.368,0.648c-0.216,0.288-0.288,0.648-0.144,1.008c0.072,0.216,0.144,0.432,0.216,0.648
		c0.072,0.144,0.216,0.36,0.288,0.504l8.928,13.824l-0.864-15.192c-0.576-1.224-1.224-2.016-1.872-2.304
		c-0.648-0.288-1.584-0.216-2.88,0.144l-1.296-4.248l14.76-4.536l1.297,4.248l-0.937,0.288c-0.937,0.288-1.513,0.504-1.728,0.792
		c-0.217,0.216-0.289,0.576-0.145,1.008c0,0.144,0.072,0.36,0.145,0.504c0.071,0.144,0.215,0.36,0.359,0.576l8.352,14.112
		l-0.791-16.416c0-0.288-0.072-0.504-0.072-0.648c0-0.216-0.072-0.432-0.072-0.576c-0.145-0.432-0.432-0.648-0.792-0.72
		c-0.36-0.072-1.008,0.072-2.088,0.36l-1.296-4.248l11.447-3.528l1.297,4.248c-0.937,0.288-1.584,0.72-1.944,1.296
		c-0.36,0.648-0.504,1.512-0.504,2.664l0.792,24.768l-9.576,2.952l-6.695-11.304l0.719,13.104l-9.575,2.952l-12.96-20.088
		c-0.792-1.224-1.584-2.016-2.304-2.376c-0.792-0.432-1.656-0.504-2.592-0.216l-1.296-4.248L22.679,19.779z"/>
	<path fill-rule="evenodd" clip-rule="evenodd" fill="none" stroke="#000000" stroke-width="3.9053" stroke-miterlimit="10" d="
		M4.895,16.54l47.016-14.4c2.232-0.72,4.608,0.72,5.328,3.024l10.872,35.424c0.72,2.305-0.504,4.824-2.735,5.473L18.431,60.531
		c-2.232,0.648-4.68-0.719-5.4-3.096L2.159,22.083C1.439,19.708,2.663,17.259,4.895,16.54z"/>
	<path fill-rule="evenodd" clip-rule="evenodd" stroke="#000000" stroke-width="0.0074" stroke-miterlimit="10" d="M27.791,66.939
		l34.2-15.84c0.432-0.216,0.936-0.144,1.08,0.217l1.08,2.447c0.145,0.288-0.072,0.721-0.504,0.936L29.375,70.467
		c-0.432,0.216-0.864,0.144-1.008-0.144l-1.152-2.448C27.071,67.515,27.287,67.156,27.791,66.939z"/>
	<path fill-rule="evenodd" clip-rule="evenodd" stroke="#000000" stroke-width="0.0074" stroke-miterlimit="10" d="M26.639,73.779
		l41.039-18.936c0.865-0.432,1.656-0.504,1.801-0.216l0.576,1.224c0.144,0.288-0.432,0.864-1.368,1.297L27.719,76.083
		c-0.864,0.359-1.656,0.432-1.8,0.145l-0.576-1.152C25.199,74.715,25.775,74.139,26.639,73.779z"/>
	<path fill-rule="evenodd" clip-rule="evenodd" d="M38.951,54.124l4.177-1.728c0,0,0.071,0.071,0.144,0.215l4.248,7.992
		c0.071,0.072,0.144,0.217,0.144,0.217l-4.248,1.728c0,0,0-0.071-0.072-0.216l-4.319-7.992
		C38.951,54.195,38.951,54.124,38.951,54.124z"/>
</g>
</svg>
