<?xml version="1.0" encoding="UTF-8" standalone="no"?>
<svg
   xmlns:dc="http://purl.org/dc/elements/1.1/"
   xmlns:cc="http://creativecommons.org/ns#"
   xmlns:rdf="http://www.w3.org/1999/02/22-rdf-syntax-ns#"
   xmlns:svg="http://www.w3.org/2000/svg"
   xmlns="http://www.w3.org/2000/svg"
   id="svg3721"
   version="1.1"
   viewBox="0 0 210 297"
   height="297mm"
   width="210mm">
  <defs
     id="defs3715" />
  <metadata
     id="metadata3718">
    <rdf:RDF>
      <cc:Work
         rdf:about="">
        <dc:format>image/svg+xml</dc:format>
        <dc:type
           rdf:resource="http://purl.org/dc/dcmitype/StillImage" />
        <dc:title></dc:title>
      </cc:Work>
    </rdf:RDF>
  </metadata>
  <g
     id="layer1">
    <path
       id="path3723"
       d="m 0.08777856,297 c 0,0 48.93854644,-84.27065 95.91817144,-46.1131 41.51186,33.71654 114.14881,-6.80357 114.14881,-6.80357 l 0.13363,53.22978 z"
       style="fill:#ffffff;stroke:#000000;stroke-width:0.26458332px;stroke-linecap:butt;stroke-linejoin:miter;stroke-opacity:1" />
    <path
       transform="scale(0.26458333)"
       id="path3744"
       d="m 393.49584,1122.4258 c -215.2358,-0.3442 -391.4271009,-0.7151 -391.5362293,-0.8243 -0.2661335,-0.2661 11.3936203,-18.548 17.6594333,-27.6891 34.124158,-49.7832 71.434123,-92.01 108.868006,-123.21513 55.07676,-45.91231 110.0176,-65.67083 159.35156,-57.30801 25.9522,4.39928 48.68682,15.24156 75.00383,35.76981 14.48279,11.29712 24.90922,17.90022 39.93678,25.29216 26.01751,12.7978 52.56308,19.98147 88.10005,23.84133 11.59251,1.25913 49.41475,1.25541 63.13454,-0.006 43.20791,-3.97321 85.46759,-13.15789 131.57237,-28.59582 33.73217,-11.29502 71.80906,-27.18888 99.85383,-41.68047 l 8.23249,-4.25396 v 60.24594 c 0,33.13525 0.15102,78.01165 0.33567,99.72535 l 0.33562,39.4794 -4.75504,-0.078 c -2.61533,-0.043 -180.8571,-0.3592 -396.09291,-0.7034 z"
       style="fill:#ffffff;stroke-width:0.50507629" />
  </g>
</svg>
